<svg xmlns="http://www.w3.org/2000/svg" version="1.1" xmlns:xlink="http://www.w3.org/1999/xlink" xmlns:svgjs="http://svgjs.dev/svgjs" width="1000" height="623" viewBox="0 0 1000 623"><g transform="matrix(1,0,0,1,-0.6060606060606233,0.2522267206477409)"><svg viewBox="0 0 396 247" data-background-color="#050505" preserveAspectRatio="xMidYMid meet" height="623" width="1000" xmlns="http://www.w3.org/2000/svg" xmlns:xlink="http://www.w3.org/1999/xlink"><g id="tight-bounds" transform="matrix(1,0,0,1,0.2400000000000091,-0.09999999999999432)"><svg viewBox="0 0 395.52 247.2" height="247.2" width="395.52"><g><svg></svg></g><g><svg viewBox="0 0 395.52 247.2" height="247.2" width="395.52"><g transform="matrix(1,0,0,1,75.54432,49.62528061815841)"><svg viewBox="0 0 244.43135999999998 147.94943876368316" height="147.94943876368316" width="244.43135999999998"><g><svg viewBox="0 0 244.43135999999998 147.94943876368316" height="147.94943876368316" width="244.43135999999998"><g><svg viewBox="0 0 244.43135999999998 147.94943876368316" height="147.94943876368316" width="244.43135999999998"><g><svg viewBox="0 0 244.43135999999998 147.94943876368316" height="147.94943876368316" width="244.43135999999998"><g id="textblocktransform"><svg viewBox="0 0 244.43135999999998 147.94943876368316" height="147.94943876368316" width="244.43135999999998" id="textblock"><g><svg viewBox="0 0 244.43135999999998 147.94943876368316" height="147.94943876368316" width="244.43135999999998"><g transform="matrix(1,0,0,1,0,0)"><svg width="244.43135999999998" viewBox="2.0999999046325684 -36.25 77.6500015258789 47" height="147.94943876368316" data-palette-color="#01fe87"><path d="M10.65 4.15L10.65-0.8Q7.8-1.25 5.63-2.23 3.45-3.2 2.1-4.05L2.1-4.05 4.8-9.9Q5.25-9.6 6.23-9.03 7.2-8.45 8.38-7.9 9.55-7.35 10.83-6.93 12.1-6.5 13.15-6.5L13.15-6.5Q15.05-6.5 15.9-7.3 16.75-8.1 16.75-9.25L16.75-9.25Q16.75-10.7 15.55-11.4 14.35-12.1 12.1-12.95L12.1-12.95Q7.8-14.55 5.55-16.82 3.3-19.1 3.3-22.8L3.3-22.8Q3.3-24.3 3.85-25.55 4.4-26.8 5.4-27.83 6.4-28.85 7.73-29.55 9.05-30.25 10.65-30.6L10.65-30.6 10.65-34.7 17-34.7 17-30.7Q19.65-30.3 21.78-29.45 23.9-28.6 25.2-27.75L25.2-27.75 22.4-22.35Q21.7-22.7 20.83-23.18 19.95-23.65 18.95-24.05 17.95-24.45 16.9-24.73 15.85-25 14.85-25L14.85-25Q13.4-25 12.63-24.53 11.85-24.05 11.85-23.05L11.85-23.05Q11.85-21.85 13.2-20.98 14.55-20.1 17.7-18.9L17.7-18.9Q21.65-17.35 23.48-15.2 25.3-13.05 25.3-9.65L25.3-9.65Q25.3-8.15 24.75-6.7 24.2-5.25 23.15-4.05 22.1-2.85 20.55-1.98 19-1.1 17-0.75L17-0.75 17 4.15 10.65 4.15ZM30.8-34.9L38.7-36.25 38.7-23.15Q39.65-24 41.2-24.73 42.75-25.45 45.25-25.45L45.25-25.45Q46.8-25.45 48.15-25 49.5-24.55 50.47-23.68 51.45-22.8 52.02-21.58 52.6-20.35 52.6-18.8L52.6-18.8Q52.6-16.55 51.77-15.08 50.95-13.6 49.95-12.75L49.95-12.75Q48.8-11.75 47.35-11.15L47.35-11.15 54.35 0 45.35 0Q43.15-3.7 41.8-6.78 40.45-9.85 39.95-12.5L39.95-12.5 39.9-13.25Q40.25-13.3 41.05-13.53 41.85-13.75 42.67-14.23 43.5-14.7 44.12-15.45 44.75-16.2 44.75-17.25L44.75-17.25Q44.75-18.4 44.17-19.03 43.6-19.65 42.7-19.65L42.7-19.65Q41.55-19.65 40.77-19.1 40-18.55 39.55-17.85 39.1-17.15 38.9-16.48 38.7-15.8 38.7-15.5L38.7-15.5 38.7 0 30.8 0 30.8-34.9ZM78.09-25.1L77.9-11.55Q77.9-9.95 78.17-8.58 78.45-7.2 78.8-5.88 79.15-4.55 79.45-3.15 79.75-1.75 79.75-0.15L79.75-0.15Q79.75 5.1 76.8 7.93 73.84 10.75 68.75 10.75L68.75 10.75Q66.45 10.75 63.95 10.2 61.45 9.65 59.05 8.65L59.05 8.65 60.9 2.55Q63.09 3.3 64.75 3.73 66.4 4.15 68.25 4.15L68.25 4.15Q70.25 4.15 71.47 3 72.7 1.85 72.7-0.3L72.7-0.3Q72.7-1.3 72.55-2.13 72.4-2.95 72-3.95L72-3.95Q70.7-1.7 68.45-0.7 66.2 0.3 63.59 0.3L63.59 0.3Q61.65 0.3 60.27-0.33 58.9-0.95 58.02-2.08 57.15-3.2 56.77-4.8 56.4-6.4 56.4-8.4L56.4-8.4 56.4-25.1 64.34-25.1 64.34-9.45Q64.34-7.7 64.77-6.63 65.2-5.55 66.34-5.55L66.34-5.55Q67-5.55 67.67-6.03 68.34-6.5 68.9-7.38 69.45-8.25 69.8-9.5 70.15-10.75 70.15-12.3L70.15-12.3 70.15-25.1 78.09-25.1Z" opacity="1" transform="matrix(1,0,0,1,0,0)" fill="#01fe87" class="undefined-text-0" data-fill-palette-color="primary" id="text-0"></path></svg></g></svg></g></svg></g></svg></g></svg></g></svg></g></svg></g><g><path d="M0 123.6c0-68.262 55.338-123.6 123.6-123.6 32.026 0 61.207 12.181 83.164 32.162h-10.278c-19.988-15.954-45.324-25.491-72.886-25.491-64.578 0-116.929 52.351-116.929 116.929 0 64.578 52.351 116.929 116.929 116.929 27.563 0 52.898-9.537 72.886-25.491h10.278c-21.956 19.981-51.138 32.162-83.164 32.162-68.262 0-123.6-55.338-123.6-123.6z" fill="#01fe87" stroke="transparent" data-fill-palette-color="tertiary"></path></g></svg></g><defs></defs></svg><rect width="395.52" height="247.2" fill="none" stroke="none" visibility="hidden"></rect></g></svg></g></svg>